<svg id="Group_385" data-name="Group 385" xmlns="http://www.w3.org/2000/svg" width="19.199" height="14.799" viewBox="0 0 19.199 14.799">
  <g id="_172463_engine_icon" data-name="172463_engine_icon">
    <path id="Path_113" data-name="Path 113" d="M12,5.6V4h2V2.4H8.4V4h2V5.6" transform="translate(-0.4 -2.4)" fill="#3a3a3e"/>
    <path id="Path_114" data-name="Path 114" d="M3.6,10.8H2V8.4H.4v6.4H2V12.4H3.6" transform="translate(-0.4 -2.4)" fill="#3a3a3e"/>
    <path id="Path_115" data-name="Path 115" d="M18,8v2H16.8V6.737A.731.731,0,0,0,16.075,6H8a.717.717,0,0,0-.512.217L5.6,8.4H4.4a.86.86,0,0,0-.8.8V14a.855.855,0,0,0,.8.8H5.6l1.885,2.184A.717.717,0,0,0,8,17.2h5.142a.717.717,0,0,0,.511-.216l2.938-2.993a.741.741,0,0,0,.212-.521V12.4H18v2h1.6V8Z" transform="translate(-0.4 -2.4)" fill="#3a3a3e"/>
  </g>
</svg>
