<svg id="Group_387" data-name="Group 387" xmlns="http://www.w3.org/2000/svg" width="13.663" height="20" viewBox="0 0 13.663 20">
  <path id="Path_116" data-name="Path 116" d="M7.295.368A13.556,13.556,0,0,0,10.486,6.81a19.147,19.147,0,0,1,2.472,3.657,6.725,6.725,0,0,1,.511,1.312,5.557,5.557,0,0,1,.194,1.444,6.627,6.627,0,0,1-.506,2.591A6.765,6.765,0,0,1,11.648,18a6.935,6.935,0,0,1-2.213,1.491,6.756,6.756,0,0,1-2.606.5,6.734,6.734,0,0,1-2.6-.5A6.9,6.9,0,0,1,2.018,18a6.77,6.77,0,0,1-1.51-2.191A6.6,6.6,0,0,1,0,13.222a5.546,5.546,0,0,1,.173-1.366A6.57,6.57,0,0,1,.635,10.61a17.717,17.717,0,0,1,2.5-3.755A13.57,13.57,0,0,0,6.356.369a.482.482,0,0,1,.939,0ZM3.34,11.538a.618.618,0,0,1,.672.562,6.007,6.007,0,0,0,.6,2.236,3.943,3.943,0,0,0,1.543,1.6A.619.619,0,0,1,5.532,17a5.152,5.152,0,0,1-2.015-2.087,7.267,7.267,0,0,1-.739-2.7.623.623,0,0,1,.562-.674Zm6.4-4.121A13.935,13.935,0,0,1,6.828,2.3,14.033,14.033,0,0,1,3.882,7.462,16.808,16.808,0,0,0,1.5,11.028a5.514,5.514,0,0,0-.394,1.066,4.586,4.586,0,0,0-.143,1.128,5.673,5.673,0,0,0,.428,2.218,5.815,5.815,0,0,0,1.3,1.878,5.947,5.947,0,0,0,1.9,1.287,5.788,5.788,0,0,0,2.233.426,5.823,5.823,0,0,0,2.241-.426,5.964,5.964,0,0,0,1.9-1.287,5.81,5.81,0,0,0,1.3-1.878,5.662,5.662,0,0,0,.428-2.218,4.562,4.562,0,0,0-.16-1.195A5.821,5.821,0,0,0,12.1,10.9a18.315,18.315,0,0,0-2.36-3.488Z" transform="translate(0 0.004)" fill="#3a3a3e"/>
  <path id="Path_117" data-name="Path 117" d="M6.625-7.125A5.847,5.847,0,0,0,8.438-2.781C10.531-.625,13,4.071,13,6a6.265,6.265,0,0,1-6.5,6A6.265,6.265,0,0,1,0,6C0,4.038,2.906-.344,4.875-3S6.587-7.138,6.625-7.125Z" transform="translate(0.163 8)" fill="#3a3a3e"/>
  <g id="Path_119" data-name="Path 119" transform="translate(3.163 12)" fill="#fff">
    <path d="M 2.766545057296753 4.555819988250732 C 2.368084907531738 4.555819988250732 1.359575033187866 3.78344988822937 0.836014986038208 2.757159948348999 C 0.227304995059967 1.563940048217773 0.008135000243782997 0.4250099956989288 0.1853449940681458 0.1098999977111816 C 0.1969150006771088 0.08930999785661697 0.2017150074243546 0.08078999817371368 0.255964994430542 0.07673999667167664 C 0.2591197490692139 0.07650542259216309 0.2622416615486145 0.07628917694091797 0.2653330564498901 0.07609111815690994 C 0.276212602853775 0.1547649800777435 0.2841216623783112 0.2651576995849609 0.2904649972915649 0.3536700010299683 C 0.3282650113105774 0.8812400102615356 0.391525000333786 1.764219999313354 1.109995007514954 2.761100053787231 C 1.683065056800842 3.556230068206787 2.19246506690979 3.996860027313232 2.529545068740845 4.288430213928223 C 2.623132944107056 4.369384288787842 2.734103441238403 4.465371131896973 2.795297861099243 4.529438495635986 C 2.790583610534668 4.537194728851318 2.785130262374878 4.545831680297852 2.778822183609009 4.555405616760254 C 2.775496482849121 4.555648803710938 2.771424770355225 4.555819988250732 2.766545057296753 4.555819988250732 Z" stroke="none"/>
    <path d="M 0.3076636791229248 -0.4253888130187988 C 1.207623839378357 -0.4253888130187988 0.30316162109375 0.7864522933959961 1.515625 2.46875 C 2.765625 4.203120231628418 3.671875 4.125 3.187494993209839 4.84375 C 2.703125 5.5625 1.078125 4.332029819488525 0.390625 2.984369993209839 C -0.296875 1.636719942092896 -0.828125 -0.34375 0.2187449932098389 -0.421879768371582 C 0.2501821517944336 -0.4242258071899414 0.2798018455505371 -0.4253888130187988 0.3076636791229248 -0.4253888130187988 Z" stroke="none" fill="#fff"/>
  </g>
</svg>
