<svg xmlns="http://www.w3.org/2000/svg" width="20" height="17.302" viewBox="0 0 20 17.302">
  <path id="Path_121" data-name="Path 121" d="M9.465,8.623l4.655-2.965a.08.08,0,0,1,.106.01l.449.479a.082.082,0,0,1,0,.107l-3.527,4.1a1.393,1.393,0,0,1-1.468.5,1.211,1.211,0,0,1-.545-.366,1.215,1.215,0,0,1,.324-1.865l0,0ZM3.146,17.28A10,10,0,0,1,10,0a9.914,9.914,0,0,1,3.813.758,10.09,10.09,0,0,1,5.425,5.426A9.9,9.9,0,0,1,18.33,15.5a10.228,10.228,0,0,1-1.237,1.514.082.082,0,0,1-.114,0l-.5-.5a.074.074,0,0,1-.028-.018l-1.393-1.393a.082.082,0,0,1,0-.114l.731-.731a.082.082,0,0,1,.114,0l1.076,1.076a8.908,8.908,0,0,0,.627-.928A8.682,8.682,0,0,0,18.8,10.181H17.318a.082.082,0,0,1-.081-.081V9.066a.082.082,0,0,1,.081-.081h1.426a8.745,8.745,0,0,0-.768-2.7,8.885,8.885,0,0,0-1.6-2.339l-.954.954a.082.082,0,0,1-.114,0l-.731-.731a.082.082,0,0,1,0-.114l.92-.92a8.826,8.826,0,0,0-2.42-1.383,8.719,8.719,0,0,0-2.726-.55V2.51a.082.082,0,0,1-.081.081H9.235a.082.082,0,0,1-.081-.081V1.235A8.773,8.773,0,0,0,4.115,3.447L5.07,4.4a.082.082,0,0,1,0,.114l-.731.731a.082.082,0,0,1-.114,0L3.281,4.3A8.8,8.8,0,0,0,1.823,6.722a8.889,8.889,0,0,0-.612,2.756h1.47a.082.082,0,0,1,.081.081v1.035a.082.082,0,0,1-.081.081H1.221a8.733,8.733,0,0,0,.22,1.4,8.646,8.646,0,0,0,.474,1.419,8.84,8.84,0,0,0,.592,1.136,8.576,8.576,0,0,0,.7.972l1.178-1.178a.082.082,0,0,1,.114,0l.731.731a.082.082,0,0,1,0,.114c-.674.674-1.317,1.32-1.968,2.012a.078.078,0,0,1-.112,0Z" transform="translate(0 0)" fill="#3a3a3e"/>
</svg>
