<svg xmlns="http://www.w3.org/2000/svg" width="20" height="20.002" viewBox="0 0 20 20.002">
  <g id="Group_386" data-name="Group 386" transform="translate(0)">
    <rect id="Rectangle_36" data-name="Rectangle 36" width="20" height="6" rx="3" transform="translate(0 2)" fill="#3a3a3e"/>
    <path id="date-icon" d="M13.283.77A.867.867,0,0,1,14.222,0a.867.867,0,0,1,.939.77V4.142a.867.867,0,0,1-.939.77.867.867,0,0,1-.939-.77ZM10.76,17.2a3.508,3.508,0,0,1,0-1.644h2.57a3.508,3.508,0,0,1,0,1.644ZM2.58,11.221a3.508,3.508,0,0,1,0-1.644H5.15a3.508,3.508,0,0,1,0,1.644Zm4.09,0a3.508,3.508,0,0,1,0-1.644H9.24a3.508,3.508,0,0,1,0,1.644Zm4.09,0a3.508,3.508,0,0,1,0-1.644h2.57a3.508,3.508,0,0,1,0,1.644Zm4.092-1.644h2.563a3.508,3.508,0,0,1,0,1.644H14.852A3.508,3.508,0,0,1,14.852,9.577ZM2.58,14.209a3.508,3.508,0,0,1,0-1.644H5.15a3.508,3.508,0,0,1,0,1.644Zm4.093,0a3.508,3.508,0,0,1,0-1.644H9.24a3.508,3.508,0,0,1,0,1.644Zm4.09,0a3.508,3.508,0,0,1,0-1.644H13.33a3.508,3.508,0,0,1,0,1.644Zm4.092,0a3.508,3.508,0,0,1,0-1.644h2.56a3.508,3.508,0,0,1,0,1.644ZM2.583,17.2a3.508,3.508,0,0,1,0-1.644H5.15a3.508,3.508,0,0,1,0,1.644Zm4.09,0a3.508,3.508,0,0,1,0-1.644H9.24a3.508,3.508,0,0,1,0,1.644ZM4.819.77A.867.867,0,0,1,5.758,0,.867.867,0,0,1,6.7.77V4.142a.867.867,0,0,1-.939.77.867.867,0,0,1-.939-.77ZM1.042,7.075H18.957V3.494a.488.488,0,0,0-.14-.337.475.475,0,0,0-.337-.14H16.764a.521.521,0,0,1,0-1.042h1.717A1.523,1.523,0,0,1,20,3.494V18.483A1.523,1.523,0,0,1,18.481,20H1.519A1.523,1.523,0,0,1,0,18.481V3.494A1.523,1.523,0,0,1,1.519,1.976H3.353a.521.521,0,1,1,0,1.042H1.519a.488.488,0,0,0-.337.14.475.475,0,0,0-.14.337ZM18.958,8.118H1.042V18.481a.488.488,0,0,0,.14.337.475.475,0,0,0,.337.14H18.481a.488.488,0,0,0,.337-.14.475.475,0,0,0,.14-.337Zm-10.75-5.1a.521.521,0,0,1,0-1.042h3.5a.521.521,0,0,1,0,1.042Z" transform="translate(0)" fill="#3a3a3e"/>
  </g>
</svg>
