<svg xmlns="http://www.w3.org/2000/svg" width="23" height="23" viewBox="0 0 23 23">
  <g id="Group_565" data-name="Group 565" transform="translate(-68.667 75)">
    <g id="Ellipse_24" data-name="Ellipse 24" transform="translate(68.667 -75)" fill="#fff" stroke="#3a3a3e" stroke-width="1.5">
      <circle cx="11.5" cy="11.5" r="11.5" stroke="none"/>
      <circle cx="11.5" cy="11.5" r="10.75" fill="none"/>
    </g>
    <path id="_5-speed-manual-transmission-icon" data-name="5-speed-manual-transmission-icon" d="M2.1,6.152V9.1h3.23V6.152a1.36,1.36,0,1,1,1.492,0V9.1h3.238V6.152a1.358,1.358,0,1,1,1.492,0V9.736a.7.7,0,0,1,0,.1.718.718,0,0,1,0,.1v3.412a1.358,1.358,0,1,1-1.492,0V10.582H6.828v2.767a1.358,1.358,0,1,1-1.492,0V10.582H2.1v2.767a1.358,1.358,0,1,1-1.492,0v-7.2a1.358,1.358,0,1,1,1.492,0ZM9.845,19.275v-2.51h1.073a1.1,1.1,0,0,1,.3.041.571.571,0,0,1,.24.136.627.627,0,0,1,.157.259,1.464,1.464,0,0,1,.03.681.72.72,0,0,1-.074.195.48.48,0,0,1-.108.133.9.9,0,0,1-.133.1l.431.969H11.1l-.351-.866H10.5v.866Zm.656-1.393h.3a.282.282,0,0,0,.094-.014.157.157,0,0,0,.071-.05.212.212,0,0,0,.042-.086.579.579,0,0,0,.013-.127.549.549,0,0,0-.013-.124.157.157,0,0,0-.113-.122.282.282,0,0,0-.094-.014h-.3ZM6.234,19.271V18.8H5.187l-.115-.293L5.8,16.761h.67l-.616,1.495h.38v-.373l.125-.325h.532v.7h.2v.455l-.2.1v.471Zm-5.746,0V18.75l.784-.8a1.354,1.354,0,0,0,.125-.138.6.6,0,0,0,.08-.125.293.293,0,0,0,.028-.125.231.231,0,0,0-.027-.116.157.157,0,0,0-.083-.066.414.414,0,0,0-.144-.02H.528v-.521c.11-.025.234-.049.37-.071a3.244,3.244,0,0,1,.471-.031,1.1,1.1,0,0,1,.471.082.471.471,0,0,1,.243.24.93.93,0,0,1,.074.389,1,1,0,0,1-.044.3A.988.988,0,0,1,1.986,18a1.919,1.919,0,0,1-.2.237l-.433.442h.877v.59ZM10.8,2.557a4.1,4.1,0,0,1-.417-.024c-.157-.014-.3-.028-.445-.045V1.967h.891a.221.221,0,0,0,.146-.036.136.136,0,0,0,.047-.083.6.6,0,0,0,0-.083V1.659a.24.24,0,0,0-.031-.132.141.141,0,0,0-.124-.047H10.7a.174.174,0,0,0-.116.03.127.127,0,0,0-.042.088H9.918L9.989.03h1.569V.61h-.985l-.017.383a.293.293,0,0,1,.14-.052A1.118,1.118,0,0,1,10.852.93h.257a.585.585,0,0,1,.322.08.5.5,0,0,1,.187.221.762.762,0,0,1,.061.314v.369a.662.662,0,0,1-.1.375.557.557,0,0,1-.287.2A1.649,1.649,0,0,1,10.8,2.557Zm-4.58,0c-.18,0-.356-.009-.525-.025a4.319,4.319,0,0,1-.471-.067V1.937h.742a1.15,1.15,0,0,0,.205-.014.176.176,0,0,0,.1-.044.119.119,0,0,0,.027-.085V1.725a.144.144,0,0,0-.03-.1.187.187,0,0,0-.088-.056.515.515,0,0,0-.143-.022l-.6-.027v-.5L6,.982A.582.582,0,0,0,6.2.941.108.108,0,0,0,6.262.833V.8A.146.146,0,0,0,6.194.665.521.521,0,0,0,5.943.627h-.69V.1c.147-.025.3-.047.471-.069A3.032,3.032,0,0,1,6.212,0a.96.96,0,0,1,.376.074.519.519,0,0,1,.242.21A.679.679,0,0,1,6.914.64V.809A.838.838,0,0,1,6.9.966a.442.442,0,0,1-.05.132.367.367,0,0,1-.088.1.471.471,0,0,1-.132.071.372.372,0,0,1,.141.075.471.471,0,0,1,.1.124.616.616,0,0,1,.06.157.823.823,0,0,1,.02.191v.1a.577.577,0,0,1-.195.471.814.814,0,0,1-.536.157ZM1.23,2.536V.627h-.4V.2L1.3,0h.577V2.536Z" transform="translate(74.084 -73.139)" fill="#3a3a3e" fill-rule="evenodd"/>
    <path id="Path_133" data-name="Path 133" d="M0,0S1.469-2.516,6.109-2.453a9.37,9.37,0,0,1,3.594.7s.047-.031.875.422a7.579,7.579,0,0,1,1.141.719.84.84,0,0,0,.173.422L9.922-.436V-.859l-.928.306L8.433-.625,6.594-.859,6.5-.328,2.965-.436l3.988-1.47L.563-.328" transform="translate(74.167 -70.5)" fill="none" stroke="#fff" stroke-width="1"/>
    <path id="Path_134" data-name="Path 134" d="M-.281,0A8.329,8.329,0,0,0,6.078,2.516c2.958.021,5.84-1.7,5.469-2.094L10.063.578v.516l-2.279.292s-1.19,1.474-1.174.5A1.6,1.6,0,0,0,6.172.578l-.547-.3.188,1.609L1.674.371l.17.35L.469.281" transform="translate(74.167 -56.5)" fill="none" stroke="#fff" stroke-width="1"/>
    <path id="Path_135" data-name="Path 135" d="M.859.422S2.2.563,2.625-.078a2.239,2.239,0,0,0,.328-1.375" transform="translate(83.167 -62.5)" fill="none" stroke="#fff" stroke-width="1"/>
    <path id="Path_136" data-name="Path 136" d="M1.484-.2l.622,3.531v.063l-.844-.506L1.078-.2l-.7,3.531,1.26.442L.453,4.016l2.313-.5-.5-4.2" transform="translate(83.167 -61.5)" fill="none" stroke="#fff" stroke-width="1"/>
  </g>
</svg>
